<svg width="22" height="22" viewBox="0 0 22 22" fill="none" xmlns="http://www.w3.org/2000/svg">
<path d="M3.08214 5.7525C1.3334 7.50153 0.348776 9.87212 0.343769 12.3454C0.338763 14.8187 1.31378 17.1933 3.05543 18.9494C5.01893 14.4079 8.5185 10.6145 12.8863 8.35714C9.11632 11.5471 6.57146 15.9474 5.68679 20.806C9.15964 22.4489 13.4339 21.8479 16.3057 18.9761C20.2995 14.9823 21.4215 4.09621 21.6619 1.10421C21.6703 1.00914 21.6577 0.913395 21.6251 0.823704C21.5925 0.734013 21.5406 0.65256 21.4731 0.585076C21.4057 0.517591 21.3242 0.465715 21.2345 0.433098C21.1448 0.400481 21.0491 0.387915 20.954 0.396285C17.962 0.636714 7.07593 1.75871 3.08214 5.7525Z" fill="url(#paint0_linear_48_114)"/>
<defs>
<linearGradient id="paint0_linear_48_114" x1="11.0041" y1="0.393768" x2="11.0041" y2="21.7068" gradientUnits="userSpaceOnUse">
<stop stop-color="#FFBB00"/>
<stop offset="1" stop-color="#F2A60C"/>
</linearGradient>
</defs>
</svg>
